Coordinates
version=1
nRows=14
nColumns=40
inDegrees=yes

Units are S.I. units (second, meters, Newtons, ...)
Angles are in degrees.

endheader
time	pelvis_tilt	pelvis_list	pelvis_rotation	pelvis_tx	pelvis_ty	pelvis_tz	hip_flexion_r	hip_adduction_r	hip_rotation_r	knee_angle_r	knee_angle_r_beta	ankle_angle_r	subtalar_angle_r	mtp_angle_r	hip_flexion_l	hip_adduction_l	hip_rotation_l	knee_angle_l	knee_angle_l_beta	ankle_angle_l	subtalar_angle_l	mtp_angle_l	lumbar_extension	lumbar_bending	lumbar_rotation	arm_flex_r	arm_add_r	arm_rot_r	elbow_flex_r	pro_sup_r	wrist_flex_r	wrist_dev_r	arm_flex_l	arm_add_l	arm_rot_l	elbow_flex_l	pro_sup_l	wrist_flex_l	wrist_dev_l
     38.15000000	     -4.41133696	     -6.17738856	      4.99300403	      0.98308837	      0.92844601	      0.50713783	     12.91726384	      4.83807997	    -17.38910566	     15.25516596	     15.25516596	      9.25282373	     -2.85183986	     -4.45992354	     39.18914781	    -12.59909898	      5.19382979	     65.37037262	     65.37037262	      3.49515837	    -17.75539187	      7.40161173	    -13.48567732	      6.32410494	      3.34587058	     17.07743972	    -16.07238518	      1.83412138	     51.76821882	     45.45954703	      0.00000000	      0.00000000	      3.14226515	     -8.04809461	     -1.84104458	     45.76288020	     45.68603907	      0.00000000	      0.00000000
     38.16107143	     -4.60292921	     -6.22993541	      5.25549349	      0.98158696	      0.92861884	      0.50752854	     12.24906248	      4.98656663	    -17.99618490	     14.45442150	     14.45442150	      9.09577618	     -2.12169690	     -5.48577139	     40.36542937	    -12.49830020	      4.97785854	     63.13515065	     63.13515065	      4.01308693	    -17.89203830	      8.60852750	    -13.31507116	      6.36722475	      3.32749975	     19.70505643	    -16.23682659	      2.25274243	     52.10299897	     45.44555148	      0.00000000	      0.00000000	      2.79086458	     -7.75643087	     -1.70573573	     41.05478999	     45.68917316	      0.00000000	      0.00000000
     38.17214286	     -4.72901520	     -6.32216819	      5.50667028	      0.98025489	      0.92887513	      0.50797557	     11.41206570	      5.29441647	    -18.23006118	     13.44527298	     13.44527298	      9.17622212	     -1.65228666	     -5.50517284	     41.20887390	    -12.42500129	      4.74512228	     60.54270076	     60.54270076	      4.20553689	    -18.07229066	      9.06300583	    -13.26215047	      6.42963452	      3.05558816	     21.97790552	    -16.24121988	      2.09788793	     53.71262318	     45.40709783	      0.00000000	      0.00000000	      1.40352859	     -7.77295082	     -1.61995856	     39.37596745	     45.66688407	      0.00000000	      0.00000000
     38.18321429	     -4.83437327	     -6.43410526	      5.73509364	      0.97897396	      0.92901692	      0.50828808	     10.56427563	      5.55892466	    -18.85169219	     12.46441113	     12.46441113	      9.11605829	     -0.60925374	     -6.13884587	     41.89404693	    -12.33777653	      4.52942558	     57.82253835	     57.82253835	      4.50141740	    -18.03929178	      9.83636284	    -13.22040466	      6.55772145	      3.42793664	     23.74764232	    -16.99090501	      2.61376386	     55.94081038	     45.32103326	      0.00000000	      0.00000000	      1.27871283	     -7.36209564	     -1.75622950	     35.14265754	     45.72286397	      0.00000000	      0.00000000
     38.19428571	     -4.93545670	     -6.52941091	      5.92138354	      0.97776840	      0.92910900	      0.50864550	      9.72804532	      5.87115280	    -19.07401519	     11.49506146	     11.49506146	      9.17649079	     -0.06581676	     -6.11190476	     42.37169438	    -12.19893850	      4.34589911	     54.87570948	     54.87570948	      4.62247131	    -17.97831579	     10.34564619	    -13.22449159	      6.62667009	      3.33667518	     25.91513155	    -17.00796538	      2.38262318	     57.47543931	     45.28911920	      0.00000000	      0.00000000	     -0.02736528	     -7.37266071	     -1.70881958	     33.73416095	     45.70625232	      0.00000000	      0.00000000
     38.20535714	     -5.04032821	     -6.66908644	      6.06494762	      0.97664930	      0.92900946	      0.50886771	      8.89429173	      6.16676283	    -19.70824118	     10.54496920	     10.54496920	      9.21408377	      1.21344013	     -6.49585518	     42.74089708	    -12.08182397	      4.21780145	     51.84270214	     51.84270214	      4.79752582	    -17.68979731	     10.85181349	    -13.19341663	      6.78361935	      3.73617478	     27.67467409	    -17.62395691	      2.53784081	     59.57821981	     45.22767518	      0.00000000	      0.00000000	     -0.40972510	     -7.12448742	     -1.72549322	     30.72081097	     45.73973344	      0.00000000	      0.00000000
     38.21642857	     -5.14177227	     -6.78623251	      6.15154108	      0.97563410	      0.92883719	      0.50909833	      8.08245474	      6.49124098	    -19.90057673	      9.64105102	      9.64105102	      9.30700343	      1.87547933	     -6.49707167	     42.93762921	    -11.92356312	      4.15529238	     48.67126723	     48.67126723	      4.95988564	    -17.25145141	     11.22119885	    -13.17606463	      6.88230605	      3.77155469	     29.72758357	    -17.63865041	      2.31217173	     61.03812405	     45.19844486	      0.00000000	      0.00000000	     -1.66630335	     -7.12762414	     -1.67438341	     29.67315504	     45.71990864	      0.00000000	      0.00000000
     38.22750000	     -5.23860124	     -6.93858338	      6.17196724	      0.97475850	      0.92850174	      0.50928688	      7.26209494	      6.83708434	    -20.19371497	      8.74792748	      8.74792748	      9.41709835	      2.81751104	     -6.57194925	     43.01459722	    -11.82564917	      4.12067717	     45.43394134	     45.43394134	      5.15646359	    -16.51950321	     11.47019876	    -13.14973374	      7.02298597	      3.90225806	     31.70303871	    -17.70734143	      2.19062580	     62.55192585	     45.16316710	      0.00000000	      0.00000000	     -2.84272936	     -7.12860559	     -1.58569536	     28.69033250	     45.69371214	      0.00000000	      0.00000000
     38.23857143	     -5.45178214	     -7.10359676	      6.13296282	      0.97387924	      0.92777970	      0.50939708	      6.71544383	      7.13337237	    -20.34559189	      8.15701548	      8.15701548	      9.62480922	      3.48664443	     -6.68611274	     43.14804994	    -11.76268666	      4.09022590	     42.22683406	     42.22683406	      5.44230130	    -15.46895946	     11.67863138	    -12.97346232	      7.15998833	      4.27449220	     33.67786713	    -17.98757297	      2.01355767	     63.77086677	     45.13917064	      0.00000000	      0.00000000	     -3.93483298	     -7.04853962	     -1.50996507	     28.06716526	     45.66647008	      0.00000000	      0.00000000
     38.24964286	     -5.41754591	     -7.37412189	      6.11023719	      0.97344814	      0.92729868	      0.50939990	      5.62943271	      7.61760987	    -20.97149169	      7.08201487	      7.08201487	      9.71179880	      5.23824843	     -6.83882546	     42.92106528	    -11.84336953	      4.12022633	     39.00647081	     39.00647081	      5.75574231	    -14.13803099	     11.58017516	    -13.05125007	      7.49707826	      4.27221579	     35.44371564	    -17.93066292	      2.19131338	     65.99579432	     45.07097014	      0.00000000	      0.00000000	     -5.21102146	     -7.08035245	     -1.24384145	     27.23269676	     45.60966649	      0.00000000	      0.00000000
     38.26071429	     -5.53433583	     -7.47928070	      5.94739592	      0.97297571	      0.92655159	      0.50937498	      4.96434573	      7.84294848	    -21.05050402	      6.55664366	      6.55664366	      9.97754129	      6.02624936	     -6.95053702	     42.65834681	    -11.83627874	      3.94766698	     35.76509672	     35.76509672	      6.10732544	    -12.74525659	     11.76963677	    -12.96335358	      7.57928967	      4.59942021	     37.18466882	    -18.02789020	      2.13680739	     67.41779960	     45.03628418	      0.00000000	      0.00000000	     -6.39420558	     -7.08993159	     -1.08928822	     26.83365784	     45.56607059	      0.00000000	      0.00000000
     38.27178571	     -5.59093681	     -7.68297046	      5.78142603	      0.97276891	      0.92567724	      0.50930462	      4.17175798	      8.19346727	    -21.20912886	      5.92666524	      5.92666524	     10.22320291	      7.04140284	     -7.02207143	     42.31921552	    -11.95938657	      3.76234274	     32.72775771	     32.72775771	      6.54705122	    -11.22405091	     11.97957055	    -12.92183531	      7.77038759	      4.76488461	     38.90872575	    -17.95839168	      2.16052239	     69.13174972	     44.98997738	      0.00000000	      0.00000000	     -7.70300853	     -7.08032052	     -0.85871119	     26.60384368	     45.50567684	      0.00000000	      0.00000000
     38.28285714	     -5.63227863	     -7.95661617	      5.61116817	      0.97276324	      0.92464197	      0.50912132	      3.37655005	      8.59196822	    -21.53674920	      5.35733595	      5.35733595	     10.57240164	      8.33401030	     -6.97631948	     42.00353118	    -12.18636837	      3.46548023	     30.02602934	     30.02602934	      6.98006099	     -9.64546604	     12.34920874	    -12.88629978	      8.09100276	      4.96507051	     40.43850628	    -18.00562948	      2.36355725	     71.35705315	     44.92691668	      0.00000000	      0.00000000	     -9.23920137	     -7.11798416	     -0.28239041	     27.03224543	     45.38191468	      0.00000000	      0.00000000
     38.29392857	     -5.69626486	     -8.13091861	      5.34577239	      0.97289097	      0.92355375	      0.50891997	      2.76202680	      8.82235968	    -21.56031197	      5.17148882	      5.17148882	     11.16100097	      9.14257800	     -6.49579339	     41.59770389	    -12.33223225	      3.05587686	     27.58182962	     27.58182962	      7.62620891	     -8.45174577	     13.47830802	    -12.81706648	      8.22197297	      5.37595474	     41.77053006	    -18.21973893	      2.48790159	     73.38504052	     44.91059327	      0.00000000	      0.00000000	    -10.99267795	     -7.57509439	      2.12476037	     28.47394092	     44.99545375	      0.00000000	      0.00000000
